<svg xmlns="http://www.w3.org/2000/svg" version="1.1" viewBox="-5.0 -10.0 110.0 135.0">
 <path d="m50 46.371c4.5938 0 8.7539 1.8633 11.762 4.8711 3.0078 3.0078 4.8711 7.1719 4.8711 11.762 0 4.5938-1.8633 8.7539-4.8711 11.766-3.0078 3.0078-7.1719 4.8711-11.762 4.8711-4.5938 0-8.7539-1.8633-11.766-4.8711-3.0078-3.0078-4.8711-7.1719-4.8711-11.766s1.8633-8.7539 4.8711-11.762c3.0078-3.0078 7.1719-4.8711 11.766-4.8711zm22.613-10.113c0.61328 0.21875 1.2539 0.32813 1.8945 0.32813 0.64063 0 1.2812-0.10938 1.8945-0.32813l-1.8945-4.9492zm3.1172 3.2383c-0.40234 0.058594-0.8125 0.085937-1.2227 0.085937-0.41016 0-0.81641-0.03125-1.2227-0.085937l1.2227 3.1914zm2.0703-7.9727 1.8711 4.8867c0.14453 0.34375 0.17188 0.79297 0.015625 1.1328l-3.7773 9.8672c-0.14453 0.38672-0.45312 0.71094-0.86719 0.86719-0.77344 0.29297-1.6406-0.09375-1.9336-0.86719l-3.7773-9.8672c-0.15625-0.33984-0.125-0.79297 0.015625-1.1328l3.7617-9.8242c0.14453-0.38672 0.45312-0.71094 0.86719-0.86719 0.77344-0.29297 1.6406 0.09375 1.9336 0.86719zm-24.898 9.6641c-0.058594-0.29297-0.10547-0.58203-0.15234-0.87891-0.16406-1.0859-0.25-2.1914-0.25-3.3164 0-6.0781 2.4648-11.578 6.4453-15.562l0.089844-0.082032c3.9766-3.9336 9.4453-6.3633 15.473-6.3633 6.0703 0 11.57 2.4648 15.555 6.4453l0.007812 0.007812c3.9805 3.9844 6.4414 9.4844 6.4414 15.551 0 6.0703-2.4648 11.574-6.4492 15.559-3.9766 3.9844-9.4805 6.4492-15.559 6.4492-0.89062 0-1.7812-0.054688-2.6562-0.16016l-0.24609-0.03125c0.26172 1.3594 0.40234 2.7617 0.40234 4.1953 0 2.1523-0.31641 4.2461-0.89844 6.2266-0.60156 2.043-1.4961 3.9688-2.625 5.7148-0.44922 0.69141-1.3789 0.89062-2.0703 0.4375-0.69141-0.44922-0.89062-1.3789-0.4375-2.0703 0.97656-1.5078 1.7461-3.168 2.2656-4.9297 0.5-1.6953 0.76953-3.5039 0.76953-5.3828 0-5.25-2.125-10.004-5.5625-13.441-3.4414-3.4414-8.1953-5.5664-13.445-5.5664-5.2188 0-9.9414 2.0977-13.371 5.4922-3.6367 3.9453-5.6367 8.0469-5.6367 13.516 0 5.2539 2.125 10.008 5.5625 13.441 3.4414 3.4414 8.1953 5.5664 13.445 5.5664 2.3945 0 4.6875-0.44531 6.7969-1.25 2.1914-0.83594 4.1875-2.0703 5.8984-3.6094 0.61328-0.55469 1.5625-0.50391 2.1172 0.11328 0.55469 0.61328 0.50391 1.5625-0.11328 2.1172-1.9844 1.7812-4.2969 3.2109-6.8359 4.1836-2.4414 0.93359-5.0938 1.4492-7.8633 1.4492-6.0703 0-11.57-2.4648-15.555-6.4453l-0.007812-0.007812c-3.9805-3.9844-6.4414-9.4844-6.4414-15.555 0-1.4336 0.13672-2.8359 0.39844-4.1914l-0.24219 0.03125c-0.87891 0.10547-1.7656 0.16016-2.6562 0.16016-6.0703 0-11.57-2.4648-15.555-6.4453-4.1406-4.1406-6.4531-9.7031-6.4531-15.562 0-1.9883 0.26562-3.9219 0.76562-5.7617 0.51172-1.8945 1.2773-3.6953 2.2539-5.3594 0.41797-0.71094 1.332-0.94922 2.043-0.53125 0.71094 0.41797 0.94922 1.332 0.53125 2.043-0.83203 1.4258-1.4922 2.9766-1.9375 4.6211-0.42969 1.582-0.66016 3.2578-0.66016 4.9883 0 5.2539 2.125 10.008 5.5625 13.441 3.4414 3.4414 8.1953 5.5664 13.445 5.5664 0.78516 0 1.5586-0.046875 2.3047-0.13672 0.49609-0.058593 0.98438-0.13672 1.4609-0.23438 0.33984-0.94922 0.73828-1.8711 1.1992-2.7578-1.5703 0.48828-3.2344 0.75391-4.9648 0.75391-4.5938 0-8.7539-1.8633-11.766-4.8711-3.0078-3.0078-4.8711-7.1719-4.8711-11.766s1.8633-8.7539 4.8711-11.762c3.0078-3.0078 7.1719-4.8711 11.766-4.8711s8.7539 1.8633 11.762 4.8711c3.0078 3.0078 4.8711 7.1719 4.8711 11.762 0 2.0781-0.38281 4.0664-1.0781 5.9023 0.91016-0.40625 1.8555-0.75391 2.8242-1.0352 0.17188-0.64844 0.30859-1.3164 0.41406-2 0.14062-0.92969 0.21484-1.8867 0.21484-2.8672 0-5.25-2.1289-10-5.5664-13.441-3.4336-3.4414-8.1875-5.5664-13.441-5.5664-1.6133 0-3.1797 0.19922-4.6641 0.57422-1.5391 0.38672-3.0039 0.96484-4.3672 1.6992-0.72656 0.39062-1.6367 0.11719-2.0273-0.60938-0.39062-0.72656-0.11719-1.6367 0.60938-2.0273 1.582-0.85156 3.2773-1.5195 5.0547-1.9688 1.7305-0.43359 3.5391-0.66797 5.3945-0.66797 6.0703 0 11.574 2.4648 15.559 6.4492 3.9844 3.9766 6.4492 9.4805 6.4492 15.559 0 1.1211-0.085938 2.2305-0.25 3.3125-0.042969 0.29297-0.09375 0.58594-0.15234 0.87891 0.94922-0.125 1.918-0.19141 2.9023-0.19141s1.9531 0.066407 2.9023 0.19141zm17.836 14.445c0.47656 0.09375 0.96875 0.17188 1.4648 0.23438 0.74609 0.089843 1.5195 0.13672 2.3047 0.13672 5.25 0 10-2.1289 13.441-5.5664 3.4414-3.4336 5.5664-8.1875 5.5664-13.441s-2.125-10.004-5.5625-13.441c-3.4414-3.4414-8.1953-5.5664-13.445-5.5664-5.2188 0-9.9414 2.0977-13.371 5.4922l-0.070313 0.074219c-3.4375 3.4375-5.5664 8.1914-5.5664 13.441 0 0.98047 0.074219 1.9375 0.21484 2.8672 0.10156 0.68359 0.24219 1.3516 0.41406 2 0.97266 0.28125 1.9141 0.62891 2.8242 1.0352-0.69531-1.8359-1.0781-3.8242-1.0781-5.9062 0-4.5938 1.8633-8.7539 4.8711-11.762 3.0078-3.0078 7.1719-4.8711 11.766-4.8711s8.7539 1.8633 11.762 4.8711c3.0078 3.0078 4.8711 7.1719 4.8711 11.762 0 4.5938-1.8633 8.7539-4.8711 11.766-3.0078 3.0078-7.1719 4.8711-11.762 4.8711-1.7305 0-3.4023-0.26562-4.9727-0.75781 0.46094 0.88672 0.86328 1.8047 1.2031 2.7578zm-42.746-8.8906c0 0.82812-0.67188 1.5-1.5 1.5-0.82813 0-1.5-0.67188-1.5-1.5v-0.54688h-1v0.54688c0 0.82812-0.67188 1.5-1.5 1.5-0.82813 0-1.5-0.67188-1.5-1.5v-0.54688h-0.039063c-0.82812 0-1.5-0.67187-1.5-1.5v-15.398c0-0.82812 0.67188-1.5 1.5-1.5h0.039063v-0.54688c0-0.82812 0.67187-1.5 1.5-1.5 0.82812 0 1.5 0.67188 1.5 1.5v0.54688h1v-0.54688c0-0.82812 0.67187-1.5 1.5-1.5 0.82812 0 1.5 0.67188 1.5 1.5v0.86328c0.78906 0.28516 1.4883 0.74609 2.0547 1.3359 0.95312 1.0234 1.4844 2.2891 1.4844 3.6953 0 1.4258-0.56641 2.7344-1.4844 3.6953l-0.15234 0.15234 0.16797 0.17187c0.91016 0.96094 1.4688 2.2617 1.4688 3.6797 0 1.4258-0.56641 2.7305-1.4844 3.6953-0.56641 0.58984-1.2656 1.0508-2.0547 1.3359zm-5.5391-3.5508c1.2969 0 2.5977 0.003906 3.8945 0.003906 0.60156-0.039062 1.1406-0.30469 1.5312-0.71484 0.40625-0.42578 0.65625-1 0.65625-1.6328 0-0.62891-0.24609-1.2031-0.64453-1.6211-0.42578-0.42578-0.91016-0.67969-1.5156-0.72656h-3.918v4.6953zm0.15234-12.395-0.11719 0.003906h-0.039062v4.6953h3.918c0.58984-0.046875 1.1211-0.3125 1.5039-0.71484 0.40625-0.42578 0.65625-1 0.65625-1.6328 0-0.62891-0.24609-1.2031-0.64453-1.6211-0.44141-0.44141-0.89062-0.66016-1.5117-0.72656h-3.7695zm-10.406-7.3945c-0.58984 0.57422-1.5391 0.5625-2.1172-0.03125-0.57422-0.58984-0.5625-1.5391 0.03125-2.1172l0.16016-0.15625c0.58984-0.57422 1.5391-0.5625 2.1172 0.03125 0.57422 0.58984 0.5625 1.5391-0.03125 2.1172zm22.934 3.9531c-2.4648-2.4648-5.8789-3.9922-9.6406-3.9922-3.7656 0-7.1758 1.5273-9.6445 3.9922-2.4648 2.4648-3.9922 5.875-3.9922 9.6406s1.5273 7.1758 3.9922 9.6445c2.4648 2.4648 5.8789 3.9922 9.6445 3.9922 3.7656 0 7.1758-1.5273 9.6406-3.9922 2.4648-2.4648 3.9922-5.8789 3.9922-9.6445s-1.5273-7.1758-3.9922-9.6406zm49.02 0c-2.4648-2.4648-5.875-3.9922-9.6406-3.9922s-7.1758 1.5273-9.6445 3.9922c-2.4648 2.4648-3.9922 5.875-3.9922 9.6406s1.5273 7.1758 3.9922 9.6445c2.4648 2.4648 5.8789 3.9922 9.6445 3.9922s7.1758-1.5273 9.6406-3.9922 3.9922-5.8789 3.9922-9.6445-1.5273-7.1758-3.9922-9.6406zm-28.723 31.543c0 0.82812-0.67188 1.5-1.5 1.5-0.82813 0-1.5-0.67188-1.5-1.5 0-0.34766-0.21875-0.6875-0.56641-0.95313-0.45703-0.34766-1.1133-0.56641-1.8633-0.56641s-1.4102 0.21875-1.8711 0.57422l-0.03125 0.019531c-0.32422 0.26172-0.52734 0.58984-0.52734 0.92578 0 0.38281 0.26172 0.78516 0.6875 1.1953 0.59375 0.57031 1.4531 1.1016 2.4102 1.5781 1.2109 0.60547 2.3203 1.3008 3.1484 2.0938 0.99609 0.95703 1.6133 2.0664 1.6133 3.3516 0 1.3242-0.66406 2.4961-1.7344 3.3203-0.61328 0.47266-1.3633 0.82812-2.1914 1.0273v1.1094c0 0.82812-0.67188 1.5-1.5 1.5s-1.5-0.67188-1.5-1.5v-1.1094c-0.82812-0.19531-1.5742-0.55078-2.1836-1.0195-1.0781-0.82422-1.7461-2-1.7461-3.3242 0-0.82812 0.67188-1.5 1.5-1.5s1.5 0.67188 1.5 1.5c0 0.34375 0.21484 0.67969 0.55859 0.94531 0.46094 0.35547 1.1211 0.57422 1.8711 0.57422s1.4102-0.21875 1.8633-0.56641c0.34766-0.26562 0.56641-0.60547 0.56641-0.95312 0-0.38281-0.26172-0.78906-0.6875-1.1953-0.59375-0.57031-1.4531-1.1016-2.4102-1.582-1.2109-0.60547-2.3203-1.3008-3.1445-2.0938-0.99609-0.95703-1.6133-2.0625-1.6133-3.3516 0-1.3008 0.64453-2.4609 1.6875-3.2812 0.63672-0.51563 1.4492-0.875 2.2422-1.0664v-1.1094c0-0.82812 0.67188-1.5 1.5-1.5 0.82813 0 1.5 0.67188 1.5 1.5v1.1094c0.83203 0.19922 1.582 0.55469 2.1914 1.0273 1.0742 0.82422 1.7344 1.9961 1.7344 3.3203zm4.2109-5.5312c-2.4648-2.4648-5.875-3.9922-9.6406-3.9922s-7.1758 1.5273-9.6445 3.9922c-2.4648 2.4648-3.9922 5.875-3.9922 9.6406 0 3.7656 1.5273 7.1758 3.9922 9.6445 2.4648 2.4648 5.8789 3.9922 9.6445 3.9922s7.1758-1.5273 9.6406-3.9922 3.9922-5.8789 3.9922-9.6445c0-3.7656-1.5273-7.1758-3.9922-9.6406z"/>
<text x="0.0" y="117.5" font-size="5.0" font-weight="bold" font-family="Arbeit Regular, Helvetica, Arial-Unicode, Arial, Sans-serif" fill="#000000">Created by Isnaini</text><text x="0.0" y="122.5" font-size="5.0" font-weight="bold" font-family="Arbeit Regular, Helvetica, Arial-Unicode, Arial, Sans-serif" fill="#000000">from Noun Project</text></svg>