<svg xmlns="http://www.w3.org/2000/svg" xmlns:xlink="http://www.w3.org/1999/xlink" version="1.1" x="0px" y="0px" viewBox="0 0 32 40" enable-background="new 0 0 32 32" xml:space="preserve"><g><path d="M29,2H3C2.4477539,2,2,2.4477539,2,3v26c0,0.5522461,0.4477539,1,1,1h26c0.5522461,0,1-0.4477539,1-1V3   C30,2.4477539,29.5522461,2,29,2z M28,8H16.6181641l2-4H28V8z M12.6181641,8l2-4h1.7636719l-2,4H12.6181641z M4,4h8.3818359l-2,4H4   V4z M28,28H4V10h24V28z"/><circle cx="6" cy="6" r="1"/><circle cx="9" cy="6" r="1"/><path d="M10,13c-0.5522461,0-1,0.4477539-1,1v2.3818359l-3.4472656,1.7236328C5.2138672,18.2749023,5,18.6210938,5,19v5   c0,0.3789063,0.2138672,0.7250977,0.5527344,0.8945313l4,2C9.6933594,26.9648438,9.8466797,27,10,27   s0.3066406-0.0351563,0.4472656-0.1054688L14.2363281,25H22c0.5522461,0,1-0.4477539,1-1v-2.3818359l3.4472656-1.7236328   C26.7861328,19.7250977,27,19.3789063,27,19v-5c0-0.3789063-0.2138672-0.7250977-0.5527344-0.8945313l-4-2   c-0.28125-0.140625-0.6132813-0.140625-0.8945313,0L17.7636719,13H10z M21,16.618103v2.7637329l-2-1v-2.763855L21,16.618103z    M10,19.8818359L8.2363281,19L10,18.1181641L11.7636719,19L10,19.8818359z M7,20.6181641l2,1v2.7636719l-2-1V20.6181641z    M11,24.3818359v-2.7636719l2-1v2.7636719L11,24.3818359z M15,23v-4c0-0.3789063-0.2138672-0.7250977-0.5527344-0.8945313   L11,16.3818359V15h6v4c0,0.3789063,0.2138672,0.7250977,0.5527344,0.8945313L21,21.6181641V23H15z M23,19.3818359v-2.7636719l2-1   v2.7636719L23,19.3818359z M22,13.1181641L23.7636719,14L22,14.8818359L20.2363281,14L22,13.1181641z"/></g><text x="0" y="47" fill="#000000" font-size="5px" font-weight="bold" font-family="'Helvetica Neue', Helvetica, Arial-Unicode, Arial, Sans-serif">Created by M. Oki Orlando</text><text x="0" y="52" fill="#000000" font-size="5px" font-weight="bold" font-family="'Helvetica Neue', Helvetica, Arial-Unicode, Arial, Sans-serif">from the Noun Project</text></svg>