<svg xmlns="http://www.w3.org/2000/svg" data-name="Layer 1" viewBox="0 0 100 125" x="0px" y="0px"><title>app_developmenticon</title><path d="M83.91,46a2.61,2.61,0,0,1,1,2,2.64,2.64,0,0,1-1,2L72,59.58a2.57,2.57,0,0,1-1.62.57,2.59,2.59,0,0,1-1.63-4.61L78.15,48l-9.36-7.54a2.59,2.59,0,1,1,3.25-4Z"/><path d="M55.16,36.83a2.58,2.58,0,0,1-.39,3.64L45.41,48l9.36,7.53a2.59,2.59,0,0,1-3.25,4L39.66,50a2.62,2.62,0,0,1-1-2,2.59,2.59,0,0,1,1-2l11.86-9.55A2.59,2.59,0,0,1,55.16,36.83Z"/><path d="M50,80a2.59,2.59,0,0,1,0,5.18H32.59a2.59,2.59,0,0,1,0-5.18Z"/><path d="M33.13,10.89a2.65,2.65,0,0,0,2.64,2.65h11a2.65,2.65,0,0,0,2.65-2.65v-.68H33.13ZM64.68,69.45v14A11.47,11.47,0,0,1,53.22,95H26.6A11.48,11.48,0,0,1,15.13,83.5V16.55A11.54,11.54,0,0,1,26.65,5H53.17A11.53,11.53,0,0,1,64.68,16.55v9.67a2.59,2.59,0,1,1-5.18,0V16.55a6.33,6.33,0,0,0-4.88-6.16v.5a7.84,7.84,0,0,1-7.83,7.83h-11A7.83,7.83,0,0,1,28,10.89v-.68h-1.3a6.34,6.34,0,0,0-6.34,6.34v67a6.29,6.29,0,0,0,6.29,6.29H53.22A6.29,6.29,0,0,0,59.5,83.5v-14a2.59,2.59,0,0,1,5.18,0Z"/><text x="0" y="115" fill="#000000" font-size="5px" font-weight="bold" font-family="'Helvetica Neue', Helvetica, Arial-Unicode, Arial, Sans-serif">Created by Pamela</text><text x="0" y="120" fill="#000000" font-size="5px" font-weight="bold" font-family="'Helvetica Neue', Helvetica, Arial-Unicode, Arial, Sans-serif">from the Noun Project</text></svg>