<svg xmlns="http://www.w3.org/2000/svg" viewBox="0 0 64 80" x="0px" y="0px"><title>Web development</title><g data-name="Web development"><path d="M33,44H31a1,1,0,0,0,0,2h2a1,1,0,0,0,0-2Z"/><path d="M56,5.3V4a3,3,0,0,0-3-3H49a1,1,0,0,0,0,2h4a1,1,0,0,1,1,1v7H10V4a1,1,0,0,1,1-1H40a1,1,0,0,0,0-2H11A3,3,0,0,0,8,4V5.3A7,7,0,0,0,3,12V44a7,7,0,0,0,7,7H24.43L21,61H20a1,1,0,0,0,0,2H44a1,1,0,0,0,0-2H43L39.57,51H54a7,7,0,0,0,7-7V12A7,7,0,0,0,56,5.3ZM54,13V33a1,1,0,0,1-1,1H11a1,1,0,0,1-1-1V13ZM8,7.44V33a3,3,0,0,0,3,3H53a3,3,0,0,0,3-3V7.44A4.94,4.94,0,0,1,59,12V39H5V12A4.94,4.94,0,0,1,8,7.44ZM40.89,61H23.11l3.43-10H37.46ZM54,49H10a5,5,0,0,1-5-5V41H59v3A5,5,0,0,1,54,49Z"/><path d="M44,3h1a1,1,0,0,0,0-2H44a1,1,0,0,0,0,2Z"/><circle cx="49" cy="7" r="2"/><circle cx="43" cy="7" r="2"/><circle cx="37" cy="7" r="2"/><path d="M14,6a1,1,0,0,0,0,2H31a1,1,0,0,0,0-2Z"/><path d="M14.17,27.55A1,1,0,0,0,15,28a.94.94,0,0,0,.55-.17,1,1,0,0,0,.28-1.38L14.2,24l1.63-2.45a1,1,0,0,0-1.66-1.1l-2,3a1,1,0,0,0,0,1.1Z"/><path d="M22.45,27.83A.94.94,0,0,0,23,28a1,1,0,0,0,.83-.45l2-3a1,1,0,0,0,0-1.1l-2-3a1,1,0,1,0-1.66,1.1L23.8,24l-1.63,2.45A1,1,0,0,0,22.45,27.83Z"/><path d="M17.75,28.84a1.07,1.07,0,0,0,.25,0,1,1,0,0,0,1-.75l2-7.74a1,1,0,0,0-1.94-.5l-2,7.74A1,1,0,0,0,17.75,28.84Z"/><path d="M32,32H49a3,3,0,0,0,3-3V19a3,3,0,0,0-3-3H32a3,3,0,0,0-3,3V29A3,3,0,0,0,32,32Zm8.53-2-1.28-1.93,3-3.64a1,1,0,0,1,.76-.36.85.85,0,0,1,.75.34l5,5.59Zm-2.4,0H32.41L35,27.44a1,1,0,0,1,.81-.3,1,1,0,0,1,.73.45ZM32,18H49a1,1,0,0,1,1,1v9.37l-4.71-5.29a3,3,0,0,0-2.24-1h0a3,3,0,0,0-2.28,1.08l-2.67,3.2A3,3,0,0,0,33.56,26L31,28.59V19A1,1,0,0,1,32,18Z"/><circle cx="36" cy="22" r="2"/></g><text x="0" y="79" fill="#000000" font-size="5px" font-weight="bold" font-family="'Helvetica Neue', Helvetica, Arial-Unicode, Arial, Sans-serif">Created by tezar tantular</text><text x="0" y="84" fill="#000000" font-size="5px" font-weight="bold" font-family="'Helvetica Neue', Helvetica, Arial-Unicode, Arial, Sans-serif">from the Noun Project</text></svg>