<svg xmlns="http://www.w3.org/2000/svg" xmlns:xlink="http://www.w3.org/1999/xlink" version="1.1" x="0px" y="0px" viewBox="0 0 512 640" style="enableBackground:new 0 0 512 512;" xml:space="preserve"><g><path d="M220.654,82.665h15.589c3.355,0,6.08-2.724,6.08-6.08c0-3.355-2.724-6.08-6.08-6.08h-15.589c-3.355,0-6.08,2.724-6.08,6.08   C214.575,79.94,217.299,82.665,220.654,82.665z"/><path d="M256.375,82.665h35.29c3.355,0,6.08-2.724,6.08-6.08c0-3.355-2.724-6.08-6.08-6.08h-35.29c-3.355,0-6.08,2.724-6.08,6.08   C250.295,79.94,253.02,82.665,256.375,82.665z"/><path d="M280.604,415.409h-49.758c-6.332,0-11.476,5.144-11.476,11.476v12.909c0,6.332,5.144,11.476,11.476,11.476h49.758   c6.332,0,11.476-5.144,11.476-11.476v-12.909C292.08,420.554,286.936,415.409,280.604,415.409z M279.921,439.119l-48.392,0.676   l-0.683-12.226l49.075-0.683V439.119z"/><path d="M179.634,128.221h80.044c3.355,0,6.08-2.724,6.08-6.08s-2.724-6.08-6.08-6.08h-80.044c-3.355,0-6.08,2.724-6.08,6.08   S176.279,128.221,179.634,128.221z"/><path d="M265.758,159.079c0-3.355-2.724-6.08-6.08-6.08h-80.044c-3.355,0-6.08,2.724-6.08,6.08c0,3.355,2.724,6.08,6.08,6.08   h80.044C263.033,165.159,265.758,162.434,265.758,159.079z"/><path d="M179.634,347.591h80.044c3.355,0,6.08-2.724,6.08-6.08s-2.724-6.08-6.08-6.08h-80.044c-3.355,0-6.08,2.724-6.08,6.08   S176.279,347.591,179.634,347.591z"/><path d="M265.758,378.457c0-3.355-2.724-6.08-6.08-6.08h-80.044c-3.355,0-6.08,2.724-6.08,6.08s2.724,6.08,6.08,6.08h80.044   C263.033,384.536,265.758,381.812,265.758,378.457z"/><path d="M243.948,238.136c0,3.355,2.724,6.08,6.08,6.08h80.037c3.355,0,6.08-2.724,6.08-6.08s-2.724-6.08-6.08-6.08h-80.037   C246.673,232.056,243.948,234.781,243.948,238.136z"/><path d="M330.065,269.002h-80.037c-3.355,0-6.08,2.724-6.08,6.08s2.724,6.08,6.08,6.08h80.037c3.355,0,6.08-2.724,6.08-6.08   S333.42,269.002,330.065,269.002z"/><path d="M463.089,99.946h-83.607V65.918c0-18.81-15.307-34.117-34.117-34.117H166.087c-18.81,0-34.117,15.307-34.117,34.117   v137.485H48.911c-3.355,0-6.08,2.724-6.08,6.08v93.035c0,3.355,2.724,6.08,6.08,6.08h83.058v137.478   c0,18.818,15.307,34.124,34.117,34.124h179.278c18.81,0,34.117-15.307,34.117-34.124V205.147h83.607c3.355,0,6.08-2.724,6.08-6.08   v-93.042C469.168,102.67,466.444,99.946,463.089,99.946z M54.991,215.562H186.04v80.876H54.991V215.562z M367.322,446.075   c0,12.107-9.851,21.965-21.958,21.965H166.087c-12.107,0-21.958-9.858-21.958-21.965V308.597h47.991c3.355,0,6.08-2.724,6.08-6.08   v-93.035c0-3.355-2.724-6.08-6.08-6.08h-47.991V65.918c0-12.107,9.851-21.958,21.958-21.958h179.278   c12.107,0,21.958,9.851,21.958,21.958v34.028H319.88c-3.355,0-6.08,2.724-6.08,6.08v93.042c0,3.355,2.724,6.08,6.08,6.08h47.442   V446.075z M457.009,192.988H325.96v-80.883h131.049V192.988z"/><path d="M87.594,256.984l14.705-14.713c2.375-2.375,2.375-6.221,0-8.596c-2.375-2.375-6.221-2.375-8.596,0l-19.011,19.011   c-2.375,2.375-2.375,6.221,0,8.596l19.13,19.13c1.188,1.188,2.739,1.782,4.298,1.782c1.559,0,3.11-0.594,4.298-1.782   c2.375-2.375,2.375-6.221,0-8.596L87.594,256.984z"/><path d="M138.606,279.862c1.188,1.188,2.739,1.782,4.298,1.782c1.559,0,3.11-0.594,4.298-1.782l19.13-19.13   c2.375-2.375,2.375-6.221,0-8.596l-19.011-19.011c-2.375-2.375-6.221-2.375-8.596,0c-2.375,2.375-2.375,6.221,0,8.596   l14.705,14.713l-14.824,14.832C136.23,273.641,136.23,277.486,138.606,279.862z"/><path d="M125.66,226.274c-3.229-0.512-6.443,1.663-7.015,4.981l-8.217,48.436c-0.557,3.311,1.67,6.451,4.981,7.015   c0.341,0.059,0.683,0.082,1.024,0.082c2.91,0,5.486-2.093,5.991-5.063l8.217-48.436   C131.198,229.978,128.971,226.838,125.66,226.274z"/><path d="M367.374,129.728l-19.018,19.011c-1.143,1.136-1.782,2.687-1.782,4.298c0,1.611,0.638,3.162,1.782,4.298l19.13,19.13   c1.188,1.188,2.739,1.782,4.298,1.782s3.11-0.594,4.298-1.782c2.375-2.375,2.375-6.221,0-8.596l-14.824-14.832l14.713-14.713   c2.375-2.368,2.375-6.221,0-8.596S369.749,127.352,367.374,129.728z"/><path d="M412.277,175.915c1.188,1.188,2.739,1.782,4.298,1.782s3.11-0.594,4.298-1.782l19.122-19.13   c2.375-2.375,2.375-6.221,0-8.596l-19.011-19.011c-2.375-2.375-6.221-2.375-8.596,0c-2.375,2.375-2.375,6.221,0,8.596   l14.713,14.713l-14.824,14.832C409.901,169.694,409.901,173.547,412.277,175.915z"/><path d="M389.072,182.759c0.341,0.059,0.683,0.082,1.024,0.082c2.91,0,5.486-2.093,5.991-5.063l8.225-48.429   c0.557-3.311-1.67-6.451-4.981-7.015c-3.214-0.542-6.443,1.67-7.015,4.981l-8.225,48.429   C383.534,179.055,385.761,182.195,389.072,182.759z"/></g><text x="0" y="527" fill="#000000" font-size="5px" font-weight="bold" font-family="'Helvetica Neue', Helvetica, Arial-Unicode, Arial, Sans-serif">Created by Shakeel Ch.</text><text x="0" y="532" fill="#000000" font-size="5px" font-weight="bold" font-family="'Helvetica Neue', Helvetica, Arial-Unicode, Arial, Sans-serif">from the Noun Project</text></svg>