<svg xmlns="http://www.w3.org/2000/svg" version="1.1" viewBox="-5.0 -10.0 110.0 135.0">
 <path d="m12.5 8.332c-3.4492 0-6.25 2.8008-6.25 6.25v54.168c0 3.4492 2.8008 6.25 6.25 6.25h6.25c1.1484 0 2.082-0.93359 2.082-2.082 0-1.1484-0.93359-2.082-2.082-2.082h-6.25c-1.1484 0-2.082-0.93359-2.082-2.082v-47.918h79.168v47.918c0 1.1484-0.93359 2.082-2.082 2.082h-6.25c-1.1484 0-2.082 0.93359-2.082 2.082 0 1.1484 0.93359 2.082 2.082 2.082h6.25c3.4492 0 6.25-2.8008 6.25-6.25v-54.168c0-3.4492-2.8008-6.25-6.25-6.25zm0 4.168h37.5l-3.125 4.168h-36.457v-2.082c0-1.1484 0.93359-2.082 2.082-2.082zm42.707 0h17.707v4.168h-20.832zm21.875 0h4.168v4.168h-4.168zm8.332 0h2.082c1.1484 0 2.082 0.93359 2.082 2.082v2.082h-4.168v-4.168zm-35.418 25c-1.3086 0-2.6211 0.097656-3.9219 0.28516-0.80469 0.11719-1.4648 0.69531-1.6953 1.4766l-0.84766 2.8984c-1.6719 0.48438-3.2891 1.1523-4.8125 1.9922l-2.6484-1.4531c-0.71484-0.39062-1.5898-0.33203-2.2461 0.15234-2.1094 1.5703-3.9805 3.4414-5.5508 5.5508-0.48438 0.65234-0.54688 1.5312-0.15234 2.2461l1.4531 2.6484c-0.83984 1.5234-1.5117 3.1367-1.9922 4.8125 0-0.003906-2.8984 0.84766-2.8984 0.84766-0.78516 0.23047-1.3594 0.89062-1.4766 1.6953-0.38281 2.6016-0.38281 5.2422 0 7.8477 0.11719 0.80469 0.69531 1.4648 1.4766 1.6953l2.8984 0.84766c0.48438 1.6719 1.1523 3.2891 1.9922 4.8125l-1.4531 2.6484c-0.39062 0.71484-0.33203 1.5898 0.15234 2.2461 1.5703 2.1094 3.4414 3.9805 5.5508 5.5508 0.65234 0.48438 1.5312 0.54688 2.2461 0.15234l2.6484-1.4531c1.5234 0.83984 3.1367 1.5117 4.8125 1.9922-0.003906 0 0.84766 2.8984 0.84766 2.8984 0.23047 0.78516 0.89062 1.3594 1.6953 1.4766 2.6016 0.38281 5.2422 0.38281 7.8477 0 0.80469-0.11719 1.4648-0.69531 1.6953-1.4766l0.84766-2.8984c1.6719-0.48438 3.2891-1.1523 4.8125-1.9922l2.6484 1.4531c0.71484 0.39062 1.5898 0.33203 2.2461-0.15234 2.1094-1.5703 3.9805-3.4414 5.5508-5.5508 0.48438-0.65234 0.54688-1.5312 0.15234-2.2461l-1.4531-2.6484c0.83984-1.5234 1.5117-3.1367 1.9922-4.8125 0 0.003906 2.8984-0.84766 2.8984-0.84766 0.78516-0.23047 1.3594-0.89062 1.4766-1.6953 0.38281-2.6016 0.38281-5.2422 0-7.8477-0.11719-0.80469-0.69531-1.4648-1.4766-1.6953l-2.8984-0.84766c-0.48437-1.6719-1.1523-3.2891-1.9922-4.8125l1.4531-2.6484c0.39062-0.71484 0.33203-1.5898-0.15234-2.2461-1.5703-2.1094-3.4414-3.9805-5.5508-5.5508-0.65234-0.48437-1.5312-0.54687-2.2461-0.15234l-2.6484 1.4531c-1.5234-0.83984-3.1367-1.5117-4.8125-1.9922 0.003906 0-0.84766-2.8984-0.84766-2.8984-0.23047-0.78516-0.89063-1.3594-1.6953-1.4766-1.3008-0.19141-2.6133-0.28516-3.9219-0.28516zm0 4.168c0.66797 0 1.3359 0.03125 2.0078 0.089843l0.79297 2.7109c0.21094 0.72266 0.79688 1.2734 1.5273 1.4453 2.0586 0.47656 4.0234 1.293 5.8164 2.4102 0.64062 0.39844 1.4414 0.42188 2.1016 0.058593l2.4766-1.3555c1.0273 0.85938 1.9805 1.8125 2.8398 2.8359 0 0.003907-1.3555 2.4805-1.3555 2.4805-0.36328 0.66016-0.33984 1.4609 0.058594 2.1016 1.1172 1.793 1.9297 3.7578 2.4102 5.8164 0.16797 0.73047 0.72266 1.3164 1.4453 1.5273l2.7109 0.79297c0.11719 1.3359 0.11719 2.6758 0 4.0117 0 0.003906-2.7109 0.79297-2.7109 0.79297-0.72266 0.21094-1.2734 0.79688-1.4453 1.5273-0.47656 2.0586-1.293 4.0234-2.4102 5.8164-0.39844 0.64062-0.42188 1.4414-0.058594 2.1016l1.3555 2.4766c-0.85938 1.0273-1.8125 1.9805-2.8359 2.8398-0.003906 0-2.4805-1.3555-2.4805-1.3555-0.66016-0.36328-1.4609-0.33984-2.1016 0.058593-1.793 1.1172-3.7578 1.9297-5.8164 2.4102-0.73047 0.16797-1.3164 0.72266-1.5273 1.4453l-0.79297 2.7109c-1.3359 0.11719-2.6758 0.11719-4.0117 0-0.003907 0-0.79297-2.7109-0.79297-2.7109-0.21094-0.72266-0.79688-1.2734-1.5273-1.4453-2.0586-0.47656-4.0234-1.293-5.8164-2.4102-0.64062-0.39844-1.4414-0.42187-2.1016-0.058593l-2.4766 1.3555c-1.0273-0.85938-1.9805-1.8125-2.8398-2.8359 0-0.003906 1.3555-2.4805 1.3555-2.4805 0.36328-0.66016 0.33984-1.4609-0.058594-2.1016-1.1172-1.793-1.9297-3.7578-2.4102-5.8164-0.16797-0.73047-0.72266-1.3164-1.4453-1.5273l-2.7109-0.79297c-0.11719-1.3359-0.11719-2.6758 0-4.0117 0-0.003906 2.7109-0.79297 2.7109-0.79297 0.72266-0.21094 1.2734-0.79687 1.4453-1.5273 0.47656-2.0586 1.293-4.0234 2.4102-5.8164 0.39844-0.64062 0.42188-1.4414 0.058594-2.1016l-1.3555-2.4766c0.85938-1.0273 1.8125-1.9805 2.8359-2.8398 0.003906 0 2.4805 1.3555 2.4805 1.3555 0.66016 0.36328 1.4609 0.33984 2.1016-0.058593 1.793-1.1172 3.7578-1.9297 5.8164-2.4102 0.73047-0.16797 1.3164-0.72266 1.5273-1.4453l0.79297-2.7109c0.66797-0.058593 1.3359-0.089843 2.0078-0.089843zm-8.332 16.668c-0.53516 0-1.0664 0.20312-1.4727 0.60937l-4.168 4.168c-0.81641 0.8125-0.81641 2.1328 0 2.9453l4.168 4.168c0.8125 0.8125 2.1328 0.8125 2.9453 0s0.8125-2.1328 0-2.9453l-2.6953-2.6953 2.6953-2.6953c0.8125-0.8125 0.8125-2.1328 0-2.9453-0.40625-0.40625-0.94141-0.60937-1.4727-0.60937zm10.348 0c-0.73828 0.023437-1.4414 0.44531-1.7969 1.1523l-4.168 8.332c-0.51562 1.0273-0.097656 2.2852 0.93359 2.7969 1.0273 0.51562 2.2852 0.097656 2.7969-0.93359l4.168-8.332c0.51563-1.0273 0.097657-2.2852-0.93359-2.7969-0.32031-0.16016-0.66406-0.23047-1-0.21875zm6.3203 0c-0.53516 0-1.0664 0.20312-1.4727 0.60937-0.8125 0.8125-0.8125 2.1328 0 2.9453l2.6953 2.6953-2.6953 2.6953c-0.8125 0.8125-0.8125 2.1328 0 2.9453s2.1328 0.8125 2.9453 0l4.168-4.168c0.81641-0.8125 0.81641-2.1328 0-2.9453l-4.168-4.168c-0.40625-0.40625-0.94141-0.60937-1.4727-0.60937z" fill-rule="evenodd"/>
<text x="0.0" y="117.5" font-size="5.0" font-weight="bold" font-family="Arbeit Regular, Helvetica, Arial-Unicode, Arial, Sans-serif" fill="#000000">Created by Ardiansyah</text><text x="0.0" y="122.5" font-size="5.0" font-weight="bold" font-family="Arbeit Regular, Helvetica, Arial-Unicode, Arial, Sans-serif" fill="#000000">from Noun Project</text></svg>