<svg xmlns="http://www.w3.org/2000/svg" xmlns:xlink="http://www.w3.org/1999/xlink" version="1.1" x="0px" y="0px" viewBox="0 0 64 80" style="enable-background:new 0 0 64 64;" xml:space="preserve"><g><path d="M63,52.776v-7.553l-2.893-0.739c-0.02-0.049-0.04-0.098-0.061-0.146l1.523-2.567L59,39.201V1H9v12H1v46h38.201l2.57,2.569   l2.567-1.522c0.049,0.021,0.098,0.041,0.146,0.061L45.223,63h7.554l0.738-2.893c0.049-0.02,0.098-0.04,0.146-0.061l2.567,1.522   l5.341-5.34l-1.523-2.567c0.021-0.049,0.041-0.098,0.061-0.146L63,52.776z M57,3v6H11V3H57z M11,11h46v26.202l-0.771-0.771   l-2.567,1.522c-0.049-0.021-0.098-0.041-0.146-0.061L52.777,35H51V13H11V11z M49,15v6H3v-6H49z M3,57V23h46v12h-3.777l-0.738,2.893   c-0.049,0.02-0.098,0.04-0.146,0.061l-2.567-1.522l-5.341,5.34l1.523,2.567c-0.021,0.049-0.041,0.098-0.061,0.146L35,45.224v7.553   l2.893,0.739c0.02,0.049,0.04,0.098,0.061,0.146l-1.523,2.567L37.201,57H3z M59.057,55.913l-3.144,3.145l-2.138-1.269l-0.482,0.23   c-0.309,0.147-0.626,0.28-0.952,0.395l-0.504,0.178L51.223,61h-4.446l-0.614-2.408l-0.504-0.178   c-0.326-0.114-0.643-0.247-0.952-0.395l-0.482-0.23l-2.138,1.269l-3.144-3.145l1.268-2.137l-0.23-0.481   c-0.148-0.311-0.28-0.629-0.396-0.955l-0.178-0.502L37,51.224v-4.447l2.406-0.614l0.178-0.503c0.116-0.326,0.248-0.644,0.396-0.954   l0.23-0.481l-1.268-2.137l3.144-3.145l2.138,1.269l0.482-0.23c0.309-0.147,0.626-0.28,0.952-0.395l0.504-0.178L46.777,37h4.446   l0.614,2.408l0.504,0.178c0.326,0.114,0.643,0.247,0.952,0.395l0.482,0.23l2.138-1.269l3.144,3.145l-1.268,2.137l0.23,0.481   c0.148,0.311,0.28,0.628,0.396,0.954l0.178,0.503L61,46.776v4.447l-2.406,0.614l-0.178,0.502c-0.117,0.326-0.249,0.645-0.396,0.955   l-0.23,0.481L59.057,55.913z"/><path d="M49,41c-4.411,0-8,3.589-8,8s3.589,8,8,8s8-3.589,8-8S53.411,41,49,41z M49,55c-3.309,0-6-2.691-6-6s2.691-6,6-6   s6,2.691,6,6S52.309,55,49,55z"/><path d="M49,45c-2.206,0-4,1.794-4,4s1.794,4,4,4s4-1.794,4-4S51.206,45,49,45z M49,51c-1.103,0-2-0.897-2-2s0.897-2,2-2   s2,0.897,2,2S50.103,51,49,51z"/><rect x="5" y="17" width="2" height="2"/><rect x="9" y="17" width="2" height="2"/><rect x="13" y="17" width="2" height="2"/><rect x="13" y="5" width="2" height="2"/><rect x="17" y="5" width="2" height="2"/><rect x="21" y="5" width="2" height="2"/><path d="M5,43h24V25H5V43z M7,27h20v14H7V27z"/><rect x="5" y="45" width="24" height="2"/><rect x="5" y="49" width="2" height="2"/><rect x="9" y="49" width="20" height="2"/><rect x="27" y="53" width="2" height="2"/><rect x="5" y="53" width="20" height="2"/></g><text x="0" y="79" fill="#000000" font-size="5px" font-weight="bold" font-family="'Helvetica Neue', Helvetica, Arial-Unicode, Arial, Sans-serif">Created by Eucalyp</text><text x="0" y="84" fill="#000000" font-size="5px" font-weight="bold" font-family="'Helvetica Neue', Helvetica, Arial-Unicode, Arial, Sans-serif">from the Noun Project</text></svg>